<?xml version="1.0" encoding="utf-8"?>
<!-- Generator: Adobe Illustrator 22.1.0, SVG Export Plug-In . SVG Version: 6.00 Build 0)  -->
<svg version="1.1" id="Layer_1" xmlns="http://www.w3.org/2000/svg" xmlns:xlink="http://www.w3.org/1999/xlink" x="0px" y="0px"
	 viewbox="0 0 357.3 124" style="enable-background:new 0 0 357.3 124;" xml:space="preserve">
<style type="text/css">
	.st0{fill:#231F20;}
</style>
<g>
	<path class="st0" d="M71.1,76.8l9.8,13.8c-8.1,9.3-20,15.2-33.4,15.2c-24.4,0-44.2-19.8-44.2-44.2c0-2.6,0.2-5.1,0.7-7.6
		c8.1-1.7,16.1-3.9,23.9-6.5c2.5-0.8,4.6-0.9,5-0.1c0.1,0.3,0.1,0.9-0.4,1.9c-0.8,1.6-2.1,3.1-3.5,4.6c-0.4,0.4-0.7,0.8-1.1,1.2
		c-1.8,2-3.9,4.8-4.4,8.2c-0.5,3.7,1.5,8,5.6,9c3.3,0.8,6.8-1,9.5-4.8c0.5-0.8,1-1.5,1.4-2.3c0.4-0.8,0.8-1.6,1.3-2.1
		c0.2-0.3,0.5-0.4,0.5-0.4c0,0,0.4,0.2,1,1.4c0.1,0.3,0.3,0.7,0.5,1c1.2,2.7,1.9,4.3,3.8,4.3c1.8,0,2.6-1.5,3.3-2.8
		c0.3-0.5,0.7-1.3,1-1.5c0.7-0.6,1.5-0.9,2.1-0.7c0.6,0.2,0.9,0.8,1.2,3.2c0.3,2.4,0.9,6,4.5,7.2c1.7,0.6,3.6,0.1,5-1.2
		c1.4-1.3,1.3-3,1.2-3.9c0-0.2,0-0.4,0-0.5c0.1-0.8,0.4-1.5,1-2.1c0.9-1,2.4-1.7,3.3-1.5c0.4,0.1,0.8,0.4,0.9,0.5
		c-0.1,0.2-0.3,0.4-0.4,0.6c-0.3,0.4-0.6,0.9-0.9,1.5C67.4,71.6,70,75.2,71.1,76.8z"/>
	<path class="st0" d="M91.8,61.5c0,9.3-2.9,17.9-7.7,25l-9-12.6c-0.5-0.7-2-2.9-1.5-3.9c0.1-0.2,0.3-0.4,0.4-0.7
		c0.4-0.6,0.9-1.3,1.2-2.2c0.4-1.3,0.2-2.6-0.5-3.7c-0.8-1.4-2.4-2.5-4.1-2.8c-3-0.6-6.1,1.1-7.9,3.1c-1.3,1.4-2,3.1-2.2,5
		c0,0.4,0,0.9,0,1.2c0,0,0,0.1,0,0.1c-0.5-0.3-0.7-1.2-1-3.2c-0.3-2.5-0.9-6.2-4.8-7.2c-2.2-0.6-4.8,0.1-6.7,1.9
		c-0.3,0.2-0.5,0.5-0.7,0.8c0-0.1-0.1-0.1-0.1-0.2c-1.2-2.5-2.8-3.9-4.8-4.2c-1.7-0.2-3.5,0.5-4.8,2c-0.8,1-1.4,2.1-1.9,3
		c-0.3,0.6-0.7,1.3-1,1.7c-1.1,1.6-3,3.3-4.5,2.9c-1.3-0.3-2-2.2-1.9-3.6c0.3-2.1,1.8-4.1,3.2-5.6c0.3-0.4,0.7-0.7,1-1.1
		c1.6-1.7,3.2-3.5,4.3-5.7c1.1-2.2,1.2-4.2,0.5-6c-1.5-3.4-5.6-4.4-11-2.6c-6.9,2.3-14,4.3-21.1,5.9c5.5-18.2,22.3-31.4,42.3-31.4
		C72,17.3,91.8,37.1,91.8,61.5z"/>
	<g>
		<path class="st0" d="M170.1,64c0,7.6-1.7,13.6-5.1,18.1c-3.4,4.5-8,6.7-14,6.7c-5.7,0-10.2-2.1-13.4-6.2l-0.5,5.3h-9.9V18.6h11
			v25.2c3.2-3.7,7.4-5.6,12.8-5.6c6,0,10.6,2.2,14,6.6c3.4,4.4,5.1,10.6,5.1,18.6V64z M159.1,63c0-5.3-0.9-9.3-2.8-11.9
			c-1.9-2.6-4.6-4-8.1-4c-4.8,0-8.1,2.1-10,6.2v20.1c2,4.2,5.3,6.4,10.1,6.4c3.4,0,6.1-1.3,7.9-3.8c1.9-2.6,2.8-6.4,2.9-11.6V63z"/>
		<path class="st0" d="M208.9,83.1c-3.2,3.8-7.8,5.7-13.7,5.7c-5.3,0-9.3-1.5-12-4.6c-2.7-3.1-4.1-7.6-4.1-13.5V39.1h11v31.5
			c0,6.2,2.6,9.3,7.7,9.3c5.3,0,8.9-1.9,10.8-5.7V39.1h11v48.8h-10.3L208.9,83.1z"/>
		<path class="st0" d="M241,39.1l0.3,5.1c3.4-4,8.1-6,14.1-6c6.5,0,11,2.5,13.4,7.5c3.5-5,8.5-7.5,15-7.5c5.4,0,9.4,1.5,12,4.5
			c2.6,3,4,7.4,4,13.2v32.1h-11V56.1c0-3.1-0.7-5.4-2-6.8c-1.4-1.4-3.6-2.2-6.7-2.2c-2.5,0-4.5,0.7-6.1,2c-1.6,1.3-2.7,3.1-3.3,5.3
			l0,33.5h-11V55.8c-0.2-5.7-3.1-8.6-8.8-8.6c-4.4,0-7.5,1.8-9.3,5.4v35.4h-11V39.1H241z"/>
		<path class="st0" d="M353.9,64c0,7.6-1.7,13.6-5.1,18.1c-3.4,4.5-8,6.7-13.8,6.7c-5.4,0-9.6-1.8-12.9-5.3v23.2h-11V39.1h10.1
			l0.5,5c3.2-3.9,7.6-5.9,13.1-5.9c6,0,10.6,2.2,14,6.7c3.4,4.4,5.1,10.6,5.1,18.5V64z M343,63c0-4.9-1-8.7-2.9-11.6
			c-1.9-2.9-4.7-4.3-8.3-4.3c-4.5,0-7.7,1.9-9.7,5.6v21.7c2,3.8,5.2,5.7,9.8,5.7c3.5,0,6.2-1.4,8.2-4.2C342,73,343,68.7,343,63z"/>
	</g>
</g>
</svg>
