<?xml version="1.0" standalone="no"?>
<!DOCTYPE svg PUBLIC "-//W3C//DTD SVG 20010904//EN"
 "http://www.w3.org/TR/2001/REC-SVG-20010904/DTD/svg10.dtd">
<svg version="1.0" xmlns="http://www.w3.org/2000/svg"
 width="300.000000pt" height="300.000000pt" viewbox="0 0 300.000000 300.000000"
 preserveAspectRatio="xMidYMid meet">
<metadata>
Created by potrace 1.11, written by Peter Selinger 2001-2013
</metadata>
<g transform="translate(0.000000,300.000000) scale(0.100000,-0.100000)"
fill="#000000" stroke="none">
<path d="M1369 2996 c-2 -2 -29 -6 -59 -10 -232 -23 -483 -122 -688 -271 -238
-171 -432 -429 -532 -703 -13 -34 -20 -65 -17 -69 8 -7 258 54 427 104 63 18
120 35 125 37 6 1 55 17 110 34 123 38 145 43 217 43 97 0 165 -40 199 -119
22 -51 23 -63 8 -132 -11 -50 -79 -164 -131 -220 -69 -74 -143 -168 -159 -204
-33 -72 -19 -155 30 -181 24 -12 32 -11 68 5 41 18 116 101 134 148 31 80 112
156 179 166 74 11 154 -36 194 -113 l17 -32 36 32 c48 42 93 60 156 61 133 3
199 -75 223 -261 3 -25 11 -56 19 -70 l14 -26 1 36 c1 137 138 274 283 283 69
4 145 -29 185 -82 23 -30 27 -45 27 -97 0 -50 -5 -69 -27 -103 -16 -23 -28
-53 -28 -66 0 -28 67 -129 282 -429 38 -53 73 -97 77 -97 9 0 76 114 118 202
46 95 98 256 119 373 33 176 25 426 -20 631 -24 110 -116 322 -192 442 -231
363 -626 617 -1052 676 -85 12 -334 20 -343 12z"/>
<path d="M895 1995 c-5 -2 -93 -29 -195 -60 -102 -30 -205 -62 -230 -69 -25
-7 -136 -35 -247 -62 l-202 -48 -9 -61 c-16 -102 -7 -367 16 -481 94 -470 393
-857 823 -1066 81 -40 262 -104 319 -113 19 -3 73 -12 120 -20 127 -20 377
-13 510 15 292 62 548 199 756 406 41 41 74 77 74 80 0 4 -16 28 -34 53 -77
102 -316 443 -340 483 -52 90 -54 200 -4 263 11 14 17 32 14 40 -8 21 -55 19
-93 -5 -47 -28 -66 -64 -70 -132 -5 -78 -23 -111 -76 -143 -68 -39 -153 -29
-207 25 -31 31 -67 116 -75 175 -9 76 -24 125 -41 132 -34 13 -65 -8 -108 -75
-51 -80 -63 -91 -103 -94 -54 -4 -102 44 -134 134 -7 21 -23 50 -36 65 -23 28
-23 28 -39 8 -8 -11 -30 -47 -47 -80 -42 -79 -123 -164 -189 -200 -100 -55
-224 -35 -293 47 -27 32 -51 79 -62 122 -11 41 -5 133 12 181 18 53 85 159
137 216 101 110 131 149 153 201 8 20 10 40 5 48 -7 12 -79 22 -105 15z"/>
</g>
</svg>
